<svg xmlns="http://www.w3.org/2000/svg" xmlns:xlink="http://www.w3.org/1999/xlink" width="208.725" height="191.672" viewBox="0 0 208.725 191.672">
  <defs>
    <clipPath id="clip-path">
      <rect id="Rectangle_6" data-name="Rectangle 6" width="208.725" height="191.672" fill="none"/>
    </clipPath>
  </defs>
  <g id="Group_19645" data-name="Group 19645" transform="translate(0 0)">
    <g id="Group_1" data-name="Group 1" transform="translate(0 0)" clip-path="url(#clip-path)">
      <path id="Path_1" data-name="Path 1" d="M177.607,84.789A84.788,84.788,0,1,1,92.818,0a84.793,84.793,0,0,1,84.789,84.789" transform="translate(10.239 0.001)" fill="#407ebf"/>
      <path id="Path_2" data-name="Path 2" d="M1.145,50.954l6.4-1.986L8.677,48.6l.505,1.627-1.144.341-3.046.946L5,51.539l5.364,2.486.576,1.859-.025.007L6.918,53.95,2.387,58.9l-.023.007L1.791,57.06l3.624-3.84L3.1,52.1l-1.456.453-1.137.366L0,51.3Z" transform="translate(0 61.965)" fill="#407ebf"/>
      <path id="Path_3" data-name="Path 3" d="M12.016,57.845l.6,1.445-1.108.446L5.321,62.313l-1.1.471L3.69,61.5,7.8,54.7l-.009-.023-.73.332L2.985,56.7l-1.1.471-.6-1.445L2.4,55.279,8.581,52.7l1.1-.471.587,1.41L6.3,60.236l.009.025.73-.332,3.874-1.613Z" transform="translate(1.641 66.594)" fill="#407ebf"/>
      <path id="Path_4" data-name="Path 4" d="M6.242,57.182c2.307-1.242,5-.8,6.343,1.7a4.459,4.459,0,0,1-2.072,6.24,4.462,4.462,0,0,1-6.361-1.706c-1.342-2.5-.227-4.987,2.091-6.233m3.385,6.292c2.038-1.1,2.521-2.641,1.8-3.974s-2.27-1.779-4.309-.685S4.59,61.463,5.307,62.8s2.27,1.779,4.32.678" transform="translate(4.555 72.051)" fill="#407ebf"/>
      <path id="Path_5" data-name="Path 5" d="M11.759,59.449l1.046,1.517L8.374,66.045l.014.02,6.452-2.15.808,1.172-4.309,5.255.02.032,6.292-2.38.976,1.413L9.675,72.43l-.851-1.235,4.318-5.353-.014-.02L6.595,67.965l-.837-1.213Z" transform="translate(7.34 75.795)" fill="#407ebf"/>
      <path id="Path_6" data-name="Path 6" d="M8.667,69.975l.921-.762L14.7,64.879l.9-.783,1.1,1.3-.921.764-5,4.243,2.953,3.483-1.019.862Z" transform="translate(11.05 81.72)" fill="#407ebf"/>
      <path id="Path_7" data-name="Path 7" d="M17.824,74.248l-2.855-2.882L13.119,73.2l3.524,3.56-.949.94-4.714-4.761.858-.833L16.6,67.393l.839-.851,4.686,4.734-.949.94-3.5-3.533-1.763,1.743,2.855,2.885Z" transform="translate(14 84.838)" fill="#407ebf"/>
      <path id="Path_8" data-name="Path 8" d="M19.592,69.017l2.487,2.1c1.752,1.474,3.089,3.854.758,6.615s-4.884,1.8-6.625.332l-2.486-2.1.78-.905,4.325-5.123Zm-3.738,7.05L16.962,77c1.506,1.272,2.98,1.417,4.482-.359s1.228-3.326-.289-4.607L20.047,71.1Z" transform="translate(17.498 87.993)" fill="#407ebf"/>
      <path id="Path_9" data-name="Path 9" d="M23.1,82.958l-.93-.644.637-1.012-.02-.016a3,3,0,0,1-3.139-.421c-2.07-1.433-2.65-3.813-.915-6.322,1.59-2.3,4.09-3.123,6.454-1.49a3.8,3.8,0,0,1,1.67,4.338l-1.5-.53a2.441,2.441,0,0,0-.921-2.737c-1.2-.833-2.819-.576-4.179,1.392-1.438,2.082-.812,3.613.266,4.356a2.252,2.252,0,0,0,3.253-.548l-1.893-1.308.7-1.015,3.146,2.177-.689.976Z" transform="translate(22.576 92.049)" fill="#407ebf"/>
      <path id="Path_10" data-name="Path 10" d="M27.891,81.295l-3.526-2-1.288,2.266,4.357,2.473-.66,1.16L20.95,81.886l.6-1.033,3.308-5.826.578-1.046,5.794,3.29-.66,1.16-4.322-2.455-1.224,2.157,3.526,2Z" transform="translate(26.711 94.322)" fill="#407ebf"/>
      <rect id="Rectangle_2" data-name="Rectangle 2" width="12.724" height="1.527" transform="translate(58.252 184.099) rotate(-66.088)" fill="#407ebf"/>
      <path id="Path_11" data-name="Path 11" d="M29.747,85.247l1.977-6.406.339-1.144,2.286.705.457,6.929.023.007L39.1,79.867l2.211.682-.364,1.14L38.972,88.1l-.341,1.144-1.615-.5.364-1.14,1.5-4.873.28-.819L39.14,81.9l-4.652,6.058-1.094-.337-.453-7.635-.025-.007-.23.833L31.18,85.691l-.341,1.147-1.456-.45Z" transform="translate(37.461 99.059)" fill="#407ebf"/>
      <path id="Path_12" data-name="Path 12" d="M35.738,87.888l-1.558-.314,5.032-8.258,1.881.38,1.41,9.552-1.77-.355-.3-2.5-3.426-.689Zm1.945-3.356,2.58.519-.487-4.09-.025,0Z" transform="translate(43.577 101.124)" fill="#407ebf"/>
      <path id="Path_13" data-name="Path 13" d="M45.6,80.459l1.554.166-.139,1.188L46.3,88.473l-.114,1.19-1.379-.148-3.995-6.87-.025,0-.059.8-.471,4.386-.114,1.19-1.554-.166.139-1.187L39.44,81l.116-1.19,1.515.162,3.881,6.643.025,0,.059-.8.446-4.17Z" transform="translate(49.199 101.757)" fill="#407ebf"/>
      <path id="Path_14" data-name="Path 14" d="M44.24,89.286l-1.588-.025L46.1,80.223l1.92.03,3.126,9.141-1.806-.027-.751-2.4-3.5-.052Zm1.3-3.656,2.632.041-1.224-3.936h-.025Z" transform="translate(54.378 102.28)" fill="#407ebf"/>
      <path id="Path_15" data-name="Path 15" d="M55.339,89.051l-1.128.082-.136-1.19-.025,0a3,3,0,0,1-2.712,1.633c-2.509.177-4.452-1.315-4.666-4.356-.2-2.789,1.235-4.993,4.1-5.2a3.8,3.8,0,0,1,4.013,2.339l-1.5.528a2.437,2.437,0,0,0-2.43-1.558c-1.458.1-2.557,1.315-2.389,3.7.182,2.523,1.627,3.324,2.932,3.23a2.253,2.253,0,0,0,2.2-2.461l-2.3.162-.086-1.228,3.815-.273.073,1.194Z" transform="translate(59.479 102.008)" fill="#407ebf"/>
      <path id="Path_16" data-name="Path 16" d="M57.337,84.668l-4,.644.414,2.573,4.946-.8.212,1.319L52.291,89.47l-.177-1.181-1.065-6.613-.2-1.178,6.577-1.06.212,1.319-4.907.789.394,2.448,4-.644Z" transform="translate(64.826 101.279)" fill="#407ebf"/>
      <path id="Path_17" data-name="Path 17" d="M56.329,88.373l-1.72-6.481-.319-1.153,2.311-.612,4.063,5.635.025-.007.721-6.9,2.236-.6.3,1.16,1.72,6.481.321,1.153-1.638.432-.293-1.158-1.308-4.932-.2-.844-.025.007-.733,7.607-1.106.293-4.434-6.236-.025.007.246.83,1.31,4.932.318,1.151-1.476.391Z" transform="translate(69.217 99.769)" fill="#407ebf"/>
      <path id="Path_18" data-name="Path 18" d="M66.389,82.072l-3.8,1.433.921,2.439,4.689-1.77.471,1.251L62.4,87.791l-.409-1.124L59.626,80.4l-.435-1.115,6.236-2.352.473,1.249-4.655,1.756.876,2.32,3.8-1.431Z" transform="translate(75.465 98.079)" fill="#407ebf"/>
      <path id="Path_19" data-name="Path 19" d="M67.929,75.927l1.408-.68.51,1.081,2.919,6.035.53,1.071-1.247.6-7.027-3.724L65,80.325l.373.71,1.92,3.974.532,1.071-1.408.68L65.9,85.68l-2.916-6.035-.532-1.072,1.374-.664,6.807,3.59.023-.011-.371-.71L68.461,77Z" transform="translate(79.627 95.936)" fill="#407ebf"/>
      <path id="Path_20" data-name="Path 20" d="M70.441,75.965,73.8,81.6l.623,1.019L72.96,83.5l-.6-1.035L69,76.822l-2.427,1.447-.682-1.149,6.283-3.742.685,1.147Z" transform="translate(84.004 93.553)" fill="#407ebf"/>
      <rect id="Rectangle_3" data-name="Rectangle 3" width="1.526" height="12.721" transform="matrix(0.807, -0.591, 0.591, 0.807, 159.204, 162.914)" fill="#407ebf"/>
      <path id="Path_21" data-name="Path 21" d="M78.607,69.959a4.041,4.041,0,0,0-2.941.953c-.812.733-1.119,1.642-.551,2.277.648.719,1.538.052,2.7-.687,1.37-.874,3.085-1.82,4.42-.337,1.115,1.238.983,3.067-.839,4.709a5.7,5.7,0,0,1-4.245,1.6l.048-1.431a4.623,4.623,0,0,0,3.321-1.14c.878-.792,1.269-1.727.639-2.425-.767-.851-1.856-.007-2.889.651-1.388.892-3.007,1.734-4.259.346-1.074-1.192-.953-2.978.719-4.484a5.521,5.521,0,0,1,3.906-1.481Z" transform="translate(93.478 87.336)" fill="#407ebf"/>
      <path id="Path_22" data-name="Path 22" d="M78.022,73.651c-1.927-1.772-2.391-4.459-.473-6.547a4.458,4.458,0,0,1,6.572-.089c1.938,1.781,2.393,4.479.475,6.565s-4.636,1.852-6.575.071m4.834-5.26c-1.7-1.565-3.321-1.515-4.345-.4s-.935,2.73.767,4.3,3.33,1.522,4.354.409.937-2.73-.776-4.3" transform="translate(97.307 83.653)" fill="#407ebf"/>
      <path id="Path_23" data-name="Path 23" d="M85.841,70.709l-.94-.739-5.312-4.086-.955-.719,1.04-1.351.94.739,5.2,4L88.6,64.935l1.058.814Z" transform="translate(100.253 81.359)" fill="#407ebf"/>
      <path id="Path_24" data-name="Path 24" d="M82.431,64.776l3.917,2.534a1.944,1.944,0,0,0,1.542.378,2.249,2.249,0,0,0,1.376-1.049,2.218,2.218,0,0,0,.382-1.645,2.028,2.028,0,0,0-.987-1.26L84.744,61.2l-1.021-.646.885-1.365,1.006.667,3.845,2.487a3.491,3.491,0,0,1,1.688,2.166,3.954,3.954,0,0,1-.755,2.921,4.094,4.094,0,0,1-2.382,1.927,3.559,3.559,0,0,1-2.771-.748L81.511,66.2,80.49,65.55l.933-1.44Z" transform="translate(102.619 75.463)" fill="#407ebf"/>
      <path id="Path_25" data-name="Path 25" d="M85.81,59.08l5.8,3.08,1.062.551-.8,1.5-1.049-.571-5.8-3.08L83.7,63.057l-1.178-.626,3.431-6.461,1.181.628Z" transform="translate(105.206 71.359)" fill="#407ebf"/>
      <path id="Path_26" data-name="Path 26" d="M92.486,60.156l-1.081-.51-6.092-2.794-1.092-.487.71-1.549,1.081.51L92.1,58.12l1.092.487Z" transform="translate(107.376 69.889)" fill="#407ebf"/>
      <path id="Path_27" data-name="Path 27" d="M88.49,59.9C86.038,58.98,84.6,56.657,85.6,54a4.458,4.458,0,0,1,6.07-2.537c2.464.93,3.895,3.265,2.894,5.917S90.954,60.834,88.49,59.9m2.523-6.688c-2.166-.817-3.649-.166-4.184,1.249s.148,2.885,2.316,3.7,3.66.173,4.195-1.244-.15-2.885-2.327-3.706" transform="translate(108.728 65.146)" fill="#407ebf"/>
      <path id="Path_28" data-name="Path 28" d="M87.948,48.285l.4-1.511L89.5,47.1l6.472,1.729,1.158.3-.357,1.338-7.4,2.889-.009.025.78.182,4.263,1.14,1.158.3-.4,1.511-1.151-.321-6.472-1.729-1.156-.3.394-1.472,7.157-2.812.007-.025-.778-.18-4.054-1.085Z" transform="translate(110.129 59.636)" fill="#407ebf"/>
      <path id="Path_29" data-name="Path 29" d="M90.6,44.176a4.027,4.027,0,0,0-1.713,2.571c-.184,1.078.141,1.984.978,2.127.953.162,1.24-.912,1.693-2.214.53-1.536,1.29-3.34,3.258-3.007,1.64.28,2.673,1.795,2.264,4.215a5.7,5.7,0,0,1-2.336,3.883L93.89,50.6a4.628,4.628,0,0,0,1.9-2.955c.2-1.165-.075-2.141-1-2.3-1.128-.191-1.458,1.147-1.861,2.3-.535,1.561-1.281,3.226-3.123,2.912C88.216,50.3,87.2,48.822,87.581,46.6a5.5,5.5,0,0,1,2.141-3.581Z" transform="translate(111.56 54.852)" fill="#407ebf"/>
      <path id="Path_30" data-name="Path 30" d="M12.7,63.986v-29.9l-.057-5.332h5.219L17.8,34.089V50.2h.114L38.51,28.757H44.8v.111L30.282,43.5,46.566,69.2v.114H40.38L26.767,47.024,17.8,56.156v7.83l.057,5.332H12.64Z" transform="translate(16.115 36.664)" fill="#fff"/>
      <path id="Path_31" data-name="Path 31" d="M37.1,63.986v-29.9l-.057-5.332h8.115L58.092,61.6h.114L71.141,28.757h7.544l-.055,5.332v29.9l.055,5.332H73.466l.057-5.332V38.343l.114-3.858h-.114L59.851,69.319H55.935L42.206,34.485h-.111l.111,3.858V63.986l.059,5.332H37.044Z" transform="translate(47.229 36.664)" fill="#fff"/>
      <path id="Path_32" data-name="Path 32" d="M94,38.777c-2.157-2.214-6.581-6.07-13.106-6.07-5.162,0-10.267,2.439-10.267,7.262s5.162,5.617,11.516,6.581c7.091,1.076,16.4,2.552,16.4,11.912C98.537,65.556,93.148,71,82.426,71c-9.985,0-16.056-4.709-18.552-7.489l3.349-3.29c2.609,2.154,6.977,6.354,14.919,6.354,5.9,0,11.234-2.327,11.234-7.6,0-5.731-6.183-6.468-11.857-7.318-7.546-1.135-16.054-2.837-16.054-11.347,0-6.693,5.33-12.025,15.033-12.025A22.687,22.687,0,0,1,97.4,35.374Z" transform="translate(81.435 36.06)" fill="#fff"/>
      <rect id="Rectangle_4" data-name="Rectangle 4" width="2.364" height="75.435" transform="translate(72.338 47.071)" fill="#fff"/>
      <rect id="Rectangle_5" data-name="Rectangle 5" width="2.364" height="75.435" transform="translate(136.307 47.071)" fill="#fff"/>
    </g>
  </g>
</svg>
