<svg xmlns="http://www.w3.org/2000/svg" xmlns:xlink="http://www.w3.org/1999/xlink" width="176.413" height="162" viewBox="0 0 176.413 162">
  <defs>
    <clipPath id="clip-path">
      <rect id="Rectangle_8476" data-name="Rectangle 8476" width="176.413" height="162" fill="none"/>
    </clipPath>
  </defs>
  <g id="Group_19713" data-name="Group 19713" transform="translate(0 0)">
    <g id="Group_19712" data-name="Group 19712" transform="translate(0 0)" clip-path="url(#clip-path)">
      <path id="Path_86387" data-name="Path 86387" d="M151.355,71.663A71.662,71.662,0,1,1,79.692,0a71.666,71.666,0,0,1,71.663,71.663" transform="translate(7.411 0.001)" fill="#407ebf"/>
      <path id="Path_86388" data-name="Path 86388" d="M.967,50.59l5.407-1.679.959-.31.427,1.375-.967.288-2.575.8.006.019,4.534,2.1.486,1.571-.021.006-3.376-1.64L2.017,57.3,2,57.31l-.485-1.559L4.576,52.5l-1.957-.944-1.231.383-.961.31L0,50.878Z" transform="translate(0 44.848)" fill="#fff"/>
      <path id="Path_86389" data-name="Path 86389" d="M10.355,56.976l.508,1.221-.936.377L4.7,60.752l-.927.4-.452-1.083L6.79,54.315,6.783,54.3l-.617.281L2.722,56.009l-.927.4-.508-1.221.936-.379,5.228-2.177.929-.4.5,1.192L5.527,59l.008.021.617-.281,3.274-1.363Z" transform="translate(1.188 48.199)" fill="#fff"/>
      <path id="Path_86390" data-name="Path 86390" d="M5.829,57.078a3.816,3.816,0,1,1,3.609,6.71,3.817,3.817,0,1,1-3.609-6.71M8.69,62.4c1.723-.927,2.13-2.232,1.525-3.359s-1.919-1.5-3.642-.579S4.433,60.7,5.038,61.824s1.919,1.5,3.651.573" transform="translate(3.297 52.148)" fill="#fff"/>
      <path id="Path_86391" data-name="Path 86391" d="M10.83,59.45l.884,1.282L7.969,65.024l.012.017,5.453-1.817.683.99-3.642,4.442.017.027,5.318-2.011.825,1.194L9.068,70.421l-.719-1.044L12,64.852l-.012-.017L6.465,66.646l-.708-1.025Z" transform="translate(5.313 54.858)" fill="#fff"/>
      <path id="Path_86392" data-name="Path 86392" d="M8.667,69.065l.779-.644,4.32-3.663.763-.661.933,1.1-.779.646-4.23,3.586,2.5,2.944-.861.729Z" transform="translate(7.998 59.147)" fill="#fff"/>
      <path id="Path_86393" data-name="Path 86393" d="M16.764,73.055l-2.413-2.436-1.563,1.55,2.978,3.009-.8.794-3.984-4.024.725-.7,4.024-3.982.709-.719,3.961,4-.8.794-2.955-2.986-1.49,1.473,2.413,2.438Z" transform="translate(10.132 61.403)" fill="#fff"/>
      <path id="Path_86394" data-name="Path 86394" d="M18.684,69.017l2.1,1.777c1.481,1.246,2.611,3.257.64,5.591s-4.128,1.523-5.6.281l-2.1-1.775.66-.765L18.04,69.8Zm-3.159,5.959.936.79c1.273,1.075,2.519,1.2,3.788-.3s1.038-2.811-.244-3.894l-.936-.79Z" transform="translate(12.665 63.687)" fill="#fff"/>
      <path id="Path_86395" data-name="Path 86395" d="M22.265,81.293l-.786-.544.538-.856L22,79.879a2.538,2.538,0,0,1-2.653-.356c-1.75-1.211-2.24-3.223-.773-5.343,1.344-1.946,3.457-2.64,5.455-1.259a3.213,3.213,0,0,1,1.411,3.667l-1.271-.448a2.063,2.063,0,0,0-.779-2.313c-1.017-.7-2.382-.486-3.532,1.177-1.215,1.759-.686,3.053.225,3.682a1.9,1.9,0,0,0,2.75-.463l-1.6-1.106.594-.858,2.659,1.84-.583.825Z" transform="translate(16.34 66.622)" fill="#fff"/>
      <path id="Path_86396" data-name="Path 86396" d="M26.817,80.163l-2.98-1.692-1.088,1.915,3.682,2.09-.558.981L20.95,80.662l.506-.873,2.8-4.924.488-.884,4.9,2.78-.558.981-3.653-2.075L24.392,77.49l2.98,1.692Z" transform="translate(19.332 68.267)" fill="#fff"/>
      <rect id="Rectangle_8472" data-name="Rectangle 8472" width="10.754" height="1.29" transform="translate(49.234 155.599) rotate(-66.088)" fill="#fff"/>
      <path id="Path_86397" data-name="Path 86397" d="M29.691,84.079l1.671-5.414.286-.967,1.932.6.386,5.857.019.006L37.6,79.531l1.869.577-.308.963-1.671,5.414-.288.967-1.365-.421.308-.963,1.271-4.119.237-.692-.019-.006L33.7,86.372l-.925-.285-.383-6.453-.021-.006-.194.7L30.9,84.453l-.288.969-1.231-.381Z" transform="translate(27.113 71.696)" fill="#fff"/>
      <path id="Path_86398" data-name="Path 86398" d="M35.5,86.561,34.18,86.3l4.253-6.98,1.59.321,1.192,8.074-1.5-.3L39.464,85.3l-2.9-.583Zm1.644-2.836,2.18.438-.411-3.457-.021,0Z" transform="translate(31.54 73.19)" fill="#fff"/>
      <path id="Path_86399" data-name="Path 86399" d="M44.513,80.359l1.313.14-.117,1-.6,5.63-.1,1.006-1.165-.125-3.376-5.807-.021,0-.05.675L40,86.587l-.1,1.006-1.313-.14.117-1,.6-5.63.1-1.006,1.281.137,3.28,5.614.021,0,.05-.677.377-3.524Z" transform="translate(35.608 73.649)" fill="#fff"/>
      <path id="Path_86400" data-name="Path 86400" d="M43.994,87.883l-1.342-.021,2.913-7.639,1.623.025,2.642,7.726L48.3,87.951l-.635-2.032-2.955-.044Zm1.1-3.09,2.225.035L46.286,81.5h-.021Z" transform="translate(39.357 74.027)" fill="#fff"/>
      <path id="Path_86401" data-name="Path 86401" d="M53.994,87.651l-.954.069-.115-1.006-.021,0A2.535,2.535,0,0,1,50.612,88.1c-2.121.15-3.763-1.111-3.944-3.682-.169-2.357,1.044-4.22,3.467-4.394A3.211,3.211,0,0,1,53.527,82l-1.271.446A2.06,2.06,0,0,0,50.2,81.127c-1.232.087-2.161,1.111-2.019,3.126.154,2.132,1.375,2.809,2.478,2.73a1.9,1.9,0,0,0,1.855-2.08l-1.94.137L50.5,84l3.224-.231.062,1.009Z" transform="translate(43.049 73.83)" fill="#fff"/>
      <path id="Path_86402" data-name="Path 86402" d="M56.332,83.858l-3.384.544.35,2.175,4.18-.673.179,1.115-5.589.9-.15-1-.9-5.589-.171-1,5.559-.9.179,1.115-4.147.667.333,2.069,3.384-.544Z" transform="translate(46.919 73.303)" fill="#fff"/>
      <path id="Path_86403" data-name="Path 86403" d="M56.013,86.806,54.56,81.328l-.269-.975,1.954-.517L59.678,84.6l.021-.006.61-5.836,1.89-.5.25.981L63.9,84.712l.271.975-1.384.365-.248-.979-1.106-4.169-.167-.713-.021.006-.619,6.43-.934.248-3.747-5.27-.021.006.208.7,1.108,4.169.269.973-1.248.331Z" transform="translate(50.097 72.21)" fill="#fff"/>
      <path id="Path_86404" data-name="Path 86404" d="M65.275,81.275l-3.209,1.211.779,2.061,3.963-1.5.4,1.058-5.3,2-.346-.95-2-5.3-.367-.942,5.27-1.988.4,1.056-3.934,1.484.74,1.961,3.209-1.209Z" transform="translate(54.619 70.987)" fill="#fff"/>
      <path id="Path_86405" data-name="Path 86405" d="M67.082,75.822l1.19-.575.431.913,2.467,5.1.448.906-1.054.51-5.939-3.148-.021.01.315.6L66.541,83.5l.45.906-1.19.575-.431-.913-2.465-5.1-.45-.906,1.161-.561,5.753,3.034.019-.01-.313-.6-1.544-3.194Z" transform="translate(57.631 69.436)" fill="#fff"/>
      <path id="Path_86406" data-name="Path 86406" d="M69.737,75.564l2.84,4.767.527.861-1.238.738-.508-.875-2.84-4.767-2.052,1.223-.577-.971L71.2,73.378l.579.969Z" transform="translate(60.8 67.711)" fill="#fff"/>
      <rect id="Rectangle_8473" data-name="Rectangle 8473" width="1.29" height="10.752" transform="matrix(0.807, -0.591, 0.591, 0.807, 134.558, 137.694)" fill="#fff"/>
      <path id="Path_86407" data-name="Path 86407" d="M77.789,69.733a3.415,3.415,0,0,0-2.486.806c-.686.619-.946,1.388-.465,1.925.548.608,1.3.044,2.284-.581,1.158-.738,2.607-1.538,3.736-.285.942,1.046.831,2.592-.709,3.98A4.818,4.818,0,0,1,76.56,76.93l.04-1.209a3.908,3.908,0,0,0,2.807-.963c.742-.669,1.073-1.459.54-2.05-.648-.719-1.569-.006-2.442.55-1.173.754-2.542,1.465-3.6.292-.908-1.008-.806-2.517.608-3.79a4.666,4.666,0,0,1,3.3-1.252Z" transform="translate(67.656 63.211)" fill="#fff"/>
      <path id="Path_86408" data-name="Path 86408" d="M77.759,72.406a3.816,3.816,0,1,1,5.557-.06,3.758,3.758,0,0,1-5.557.06m4.086-4.445c-1.44-1.323-2.807-1.281-3.672-.34s-.79,2.307.648,3.632,2.815,1.286,3.68.346.792-2.307-.656-3.638" transform="translate(70.428 60.545)" fill="#fff"/>
      <path id="Path_86409" data-name="Path 86409" d="M84.725,69.641l-.794-.625-4.49-3.453-.808-.608.879-1.142.794.625,4.4,3.382,2.353-3.059.894.688Z" transform="translate(72.56 58.885)" fill="#fff"/>
      <path id="Path_86410" data-name="Path 86410" d="M82.13,63.911l3.311,2.142a1.643,1.643,0,0,0,1.3.319,1.9,1.9,0,0,0,1.163-.886,1.875,1.875,0,0,0,.323-1.39,1.714,1.714,0,0,0-.834-1.065l-3.311-2.142-.863-.546.748-1.154.85.563,3.249,2.1a2.95,2.95,0,0,1,1.427,1.83,3.342,3.342,0,0,1-.638,2.469,3.46,3.46,0,0,1-2.013,1.629,3.008,3.008,0,0,1-2.342-.633l-3.149-2.038-.863-.546.788-1.217Z" transform="translate(74.273 54.618)" fill="#fff"/>
      <path id="Path_86411" data-name="Path 86411" d="M85.3,58.6l4.9,2.6.9.465-.677,1.271-.886-.483-4.9-2.6-1.121,2.107-1-.529,2.9-5.461,1,.531Z" transform="translate(76.144 51.648)" fill="#fff"/>
      <path id="Path_86412" data-name="Path 86412" d="M91.206,59.33l-.913-.431-5.149-2.361-.923-.411.6-1.309.913.431,5.149,2.361.923.411Z" transform="translate(77.715 50.584)" fill="#fff"/>
      <path id="Path_86413" data-name="Path 86413" d="M87.994,58.54a3.818,3.818,0,1,1,5.136-2.13,3.76,3.76,0,0,1-5.136,2.13m2.132-5.653c-1.83-.69-3.084-.14-3.536,1.056s.125,2.438,1.957,3.128,3.094.146,3.546-1.052-.127-2.438-1.967-3.132" transform="translate(78.694 47.151)" fill="#fff"/>
      <path id="Path_86414" data-name="Path 86414" d="M87.7,48.052l.342-1.277.971.271,5.47,1.461.979.252-.3,1.131-6.257,2.442-.008.021.66.154,3.6.963.979.25L93.8,55l-.973-.271-5.47-1.461-.977-.252.333-1.244,6.049-2.377.006-.021-.658-.152L88.684,48.3Z" transform="translate(79.708 43.163)" fill="#fff"/>
      <path id="Path_86415" data-name="Path 86415" d="M90.119,44a3.4,3.4,0,0,0-1.448,2.173c-.156.911.119,1.677.827,1.8.806.137,1.048-.771,1.431-1.871.448-1.3,1.09-2.823,2.753-2.542,1.386.237,2.259,1.517,1.913,3.563A4.822,4.822,0,0,1,93.62,50.4L92.9,49.43a3.911,3.911,0,0,0,1.6-2.5c.167-.984-.063-1.809-.848-1.942-.954-.162-1.232.969-1.573,1.946C91.63,48.255,91,49.662,89.442,49.4c-1.336-.227-2.192-1.473-1.873-3.348a4.651,4.651,0,0,1,1.809-3.026Z" transform="translate(80.743 39.701)" fill="#fff"/>
      <path id="Path_86416" data-name="Path 86416" d="M12.688,58.532V33.264l-.048-4.507H17.05L17,33.264V46.881h.1L34.505,28.757h5.32v.094L27.551,41.222,41.314,62.943v.1H36.086L24.58,44.2,17,51.914v6.618l.048,4.507H12.64Z" transform="translate(11.663 26.536)" fill="#fff"/>
      <path id="Path_86417" data-name="Path 86417" d="M37.092,58.532V33.264l-.048-4.507H43.9L54.834,56.517h.1L65.863,28.757h6.376l-.046,4.507V58.532l.046,4.507H67.828l.048-4.507V36.859l.1-3.261h-.1L56.32,63.039H53.011L41.407,33.6h-.094l.094,3.261V58.532l.05,4.507H37.044Z" transform="translate(34.183 26.536)" fill="#fff"/>
      <path id="Path_86418" data-name="Path 86418" d="M89.335,37.153c-1.823-1.871-5.563-5.13-11.077-5.13-4.363,0-8.677,2.061-8.677,6.137s4.363,4.747,9.733,5.563c5.993.909,13.857,2.157,13.857,10.068,0,6-4.555,10.6-13.617,10.6-8.439,0-13.571-3.98-15.68-6.33l2.83-2.78c2.205,1.821,5.9,5.37,12.609,5.37,4.988,0,9.495-1.967,9.495-6.426,0-4.843-5.226-5.466-10.021-6.186-6.378-.959-13.569-2.4-13.569-9.591,0-5.657,4.505-10.164,12.706-10.164a19.175,19.175,0,0,1,14.29,5.993Z" transform="translate(58.94 26.099)" fill="#fff"/>
      <rect id="Rectangle_8474" data-name="Rectangle 8474" width="1.998" height="63.757" transform="translate(61.14 39.784)" fill="#fff"/>
      <rect id="Rectangle_8475" data-name="Rectangle 8475" width="1.998" height="63.757" transform="translate(115.206 39.784)" fill="#fff"/>
    </g>
  </g>
</svg>
