<svg xmlns="http://www.w3.org/2000/svg" width="443.893" height="339.5" viewBox="0 0 443.893 339.5">
  <g id="Group_172802" data-name="Group 172802" transform="translate(-91.92 -59.6)">
    <g id="Group_172768" data-name="Group 172768" transform="translate(272.742 190.829)">
      <path id="Path_90371" data-name="Path 90371" d="M239.268,169.04a1.222,1.222,0,0,0-1.223,1.222V173.1a1.222,1.222,0,0,0,2.445,0v-2.835A1.222,1.222,0,0,0,239.268,169.04Z" transform="translate(-232.012 -160.324)" fill="#1e5a99"/>
      <path id="Path_90372" data-name="Path 90372" d="M237.384,166.816h-2.836a1.222,1.222,0,0,0,0,2.445h2.836a1.222,1.222,0,0,0,0-2.445Z" transform="translate(-233.327 -160.944)" fill="#1e5a99"/>
      <path id="Path_90373" data-name="Path 90373" d="M239.268,162.224a1.221,1.221,0,0,0-1.223,1.221v2.834a1.222,1.222,0,1,0,2.445,0v-2.834A1.221,1.221,0,0,0,239.268,162.224Z" transform="translate(-232.012 -162.224)" fill="#1e5a99"/>
      <path id="Path_90374" data-name="Path 90374" d="M244.6,166.664h-2.836a1.222,1.222,0,0,0,0,2.444H244.6a1.222,1.222,0,0,0,0-2.444Z" transform="translate(-231.315 -160.986)" fill="#1e5a99"/>
    </g>
    <g id="Group_172769" data-name="Group 172769" transform="translate(429.956 59.6)">
      <path id="Path_90375" data-name="Path 90375" d="M396.652,59.6H368.715a1.222,1.222,0,0,0,0,2.444h27.936a1.222,1.222,0,1,0,0-2.444Z" transform="translate(-353.144 -59.599)" fill="#1e5a99"/>
      <path id="Path_90376" data-name="Path 90376" d="M362.952,59.6h-5.459a1.222,1.222,0,0,0,0,2.444h5.459a1.222,1.222,0,1,0,0-2.444Z" transform="translate(-356.272 -59.6)" fill="#1e5a99"/>
      <path id="Path_90377" data-name="Path 90377" d="M386.655,67.482a1.221,1.221,0,0,1-1.223,1.221h-3.495a1.222,1.222,0,0,1,0-2.444h3.495A1.223,1.223,0,0,1,386.655,67.482Zm-9.6,0a1.221,1.221,0,0,1-1.222,1.221h-6.111a1.222,1.222,0,0,1,0-2.444h6.111A1.222,1.222,0,0,1,377.05,67.482Zm-12.222,0a1.221,1.221,0,0,1-1.221,1.221H357.5a1.222,1.222,0,1,1,0-2.444h6.111A1.222,1.222,0,0,1,364.828,67.482Z" transform="translate(-356.272 -57.744)" fill="#1e5a99"/>
    </g>
    <g id="Group_172770" data-name="Group 172770" transform="translate(192.434 396.651)">
      <path id="Path_90378" data-name="Path 90378" d="M182.968,325.626H210.9a1.222,1.222,0,0,0,0-2.444H182.968a1.222,1.222,0,1,0,0,2.444Z" transform="translate(-167.396 -323.182)" fill="#76c3e4"/>
      <path id="Path_90379" data-name="Path 90379" d="M171.746,325.63h5.459a1.222,1.222,0,0,0,0-2.444h-5.459a1.222,1.222,0,1,0,0,2.444Z" transform="translate(-170.524 -323.181)" fill="#76c3e4"/>
    </g>
    <path id="Path_90380" data-name="Path 90380" d="M305.19,83.28s1.669,11.9-12.238,11.629c0,0,11.945.123,11.631,11.293,0,0,1.074-8.786,12.035-10.75C316.619,95.451,307.356,97.576,305.19,83.28Z" transform="translate(56.035 6.6)" fill="#1e5a99"/>
    <path id="Path_90381" data-name="Path 90381" d="M211.576,108.99s1.669,11.905-12.236,11.63c0,0,11.945.123,11.63,11.293,0,0,1.074-8.787,12.035-10.75C223.006,121.162,213.744,123.288,211.576,108.99Z" transform="translate(29.942 13.767)" fill="#1e5a99"/>
    <path id="Path_90382" data-name="Path 90382" d="M266.58,69.2s.581,4.148-4.266,4.054c0,0,4.165.042,4.052,3.937,0,0,.375-3.064,4.2-3.749C270.562,73.442,267.333,74.182,266.58,69.2Z" transform="translate(47.495 2.676)" fill="#1e5a99"/>
    <path id="Path_90383" data-name="Path 90383" d="M436.871,181.07s.58,4.148-4.266,4.054c0,0,4.165.042,4.052,3.937,0,0,.376-3.064,4.2-3.749C440.853,185.312,437.624,186.052,436.871,181.07Z" transform="translate(94.961 33.858)" fill="#76c3e4"/>
    <path id="Path_90384" data-name="Path 90384" d="M121.347,236.533s.581,4.148-4.265,4.054c0,0,4.164.042,4.052,3.937,0,0,.375-3.064,4.2-3.748C125.33,240.776,122.1,241.515,121.347,236.533Z" transform="translate(7.014 49.317)" fill="#76c3e4"/>
    <g id="Group_172771" data-name="Group 172771" transform="translate(292.252 308.681)">
      <path id="Path_90386" data-name="Path 90386" d="M282,276.544H254.878a6.293,6.293,0,0,1-.2-12.583,9.74,9.74,0,0,1,17.9-5.153,7.063,7.063,0,0,1,7.844,5.149H282a6.293,6.293,0,0,1,0,12.587ZM254.878,265.82a4.431,4.431,0,1,0,0,8.862H282a4.431,4.431,0,0,0,0-8.862h-3.132l-.124-.785a5.2,5.2,0,0,0-6.42-4.286l-.685.164-.344-.615a7.877,7.877,0,0,0-14.76,3.83c0,.23.015.458.035.682l.087,1.011Z" transform="translate(-248.584 -254.387)" fill="#76c3e4"/>
    </g>
    <g id="Group_172772" data-name="Group 172772" transform="translate(356.155 148.372)">
      <path id="Path_90387" data-name="Path 90387" d="M331.978,151.18H304.851a6.293,6.293,0,0,1-.2-12.583,9.738,9.738,0,0,1,17.9-5.152,7.067,7.067,0,0,1,7.845,5.149h1.587a6.293,6.293,0,1,1,0,12.585Zm-27.127-10.723a4.431,4.431,0,1,0,0,8.862h27.127a4.431,4.431,0,1,0,0-8.862h-3.132l-.124-.785a5.208,5.208,0,0,0-6.421-4.286l-.685.164-.344-.615a7.877,7.877,0,0,0-14.762,3.83c0,.23.015.458.036.682l.086,1.011Z" transform="translate(-298.558 -129.022)" fill="#1e5a99"/>
    </g>
    <path id="Path_90436" data-name="Path 90436" d="M285.44,213.96l13.111,14.061,99.935-41.683Z" transform="translate(53.941 35.326)" fill="#1e5a99"/>
    <path id="Path_90437" data-name="Path 90437" d="M295.93,171.655l-9.87,14.891,6.673,14.593-14.971,2.546-13.229,29.045,142.989-43.27Z" transform="translate(48.113 31.234)" fill="#76c3e4"/>
    <path id="Path_90438" data-name="Path 90438" d="M288.04,197.893,281.367,183.3l77.45,3.622Z" transform="translate(52.805 34.479)" fill="#1e5a99"/>
    <g id="Group_172800" data-name="Group 172800" transform="translate(205.102 255.301)">
      <path id="Path_90439" data-name="Path 90439" d="M308.648,334.029q-1.65,0-3.3-.02a2,2,0,0,1-1.981-2.026A1.96,1.96,0,0,1,305.393,330c5.189.059,10.341-.022,15.994-.261h.086a2,2,0,0,1,.084,4.006C317.029,333.937,312.8,334.029,308.648,334.029Zm-19.363-.79a1.622,1.622,0,0,1-.176-.006c-5.519-.473-10.951-1.18-16.142-2.1a2,2,0,0,1-1.621-2.326,2.036,2.036,0,0,1,2.326-1.621c5.069.9,10.381,1.595,15.783,2.058a2,2,0,0,1-.17,4Zm-31.628-5.784a1.933,1.933,0,0,1-.588-.092,115.893,115.893,0,0,1-15.277-5.872,2,2,0,1,1,1.7-3.628,112.616,112.616,0,0,0,14.749,5.67,2.005,2.005,0,0,1-.587,3.922Zm-29.029-13.672a2,2,0,0,1-1.11-.336,106.28,106.28,0,0,1-12.9-10.13,2,2,0,1,1,2.715-2.949,102.363,102.363,0,0,0,12.406,9.744,2,2,0,0,1-1.115,3.671Zm-23.62-21.705a2.009,2.009,0,0,1-1.57-.753,106.93,106.93,0,0,1-9.2-13.581,2,2,0,1,1,3.485-1.983,102.759,102.759,0,0,0,8.854,13.065,2,2,0,0,1-1.569,3.253ZM189.134,264.2a2.008,2.008,0,0,1-1.876-1.3,98.38,98.38,0,0,1-4.505-15.8,2,2,0,0,1,3.935-.771,94.322,94.322,0,0,0,4.322,15.15,2.008,2.008,0,0,1-1.876,2.715Zm-6.394-31.449a2.006,2.006,0,0,1-2-1.876c-.208-3.275-.312-6.724-.312-10.244v-.812q.01-2.612.093-5.236a2,2,0,0,1,2-1.937h.065a2,2,0,0,1,1.937,2.068q-.082,2.564-.095,5.112v.806c0,3.438.1,6.8.307,9.989a2,2,0,0,1-1.872,2.128C182.829,232.749,182.785,232.749,182.74,232.749Z" transform="translate(-180.431 -212.643)" fill="#1e5a99"/>
    </g>
    <g id="Group_172801" data-name="Group 172801" transform="translate(91.92 126.689)">
      <path id="Path_90440" data-name="Path 90440" d="M224.264,229q-4.59,0-9.033-.111a2,2,0,0,1,.052-4.006h.052q7.761.2,16.011.042a1.9,1.9,0,0,1,2.042,1.964,2,2,0,0,1-1.964,2.042Q227.8,229,224.264,229Zm23.213-.673a2,2,0,0,1-.107-4c5.183-.294,10.566-.682,16-1.161a2,2,0,1,1,.353,3.992c-5.478.483-10.9.879-16.133,1.169C247.555,228.329,247.515,228.329,247.477,228.329Zm-48.273-.254c-.052,0-.1,0-.16,0-5.579-.435-11.007-1.028-16.136-1.762a2,2,0,0,1-1.7-2.267,2.035,2.035,0,0,1,2.267-1.7c5.043.721,10.387,1.3,15.882,1.729a2,2,0,0,1-.153,4Zm80.358-2.56a2,2,0,0,1-.228-3.993q7.809-.915,15.92-2.069a2,2,0,0,1,.568,3.968q-8.167,1.164-16.025,2.08A1.816,1.816,0,0,1,279.562,225.514Zm-112.215-2.056a2.071,2.071,0,0,1-.441-.049c-3.875-.871-7.653-1.849-11.225-2.913q-2.281-.681-4.486-1.413a2,2,0,0,1,1.258-3.8q2.148.71,4.369,1.373c3.487,1.038,7.174,1.994,10.957,2.843a2.006,2.006,0,0,1-.434,3.963Zm-30.444-10.3a2,2,0,0,1-.875-.2,97.511,97.511,0,0,1-14.149-8.339,2,2,0,1,1,2.33-3.262,93.828,93.828,0,0,0,13.567,7.993,2.006,2.006,0,0,1-.873,3.811Zm69-1.792a2,2,0,0,1-2-2v-.711c0-5.054-.2-10.188-.6-15.264a2.006,2.006,0,0,1,4-.313c.4,5.178.61,10.42.61,15.578v.711A2,2,0,0,1,205.9,211.372Zm-94.913-17a2,2,0,0,1-1.481-.652,69.747,69.747,0,0,1-9.634-13.438,2.006,2.006,0,0,1,3.517-1.931,65.645,65.645,0,0,0,9.079,12.667,2,2,0,0,1-1.481,3.354Zm92.332-15.144a2.005,2.005,0,0,1-1.974-1.664,136.55,136.55,0,0,0-3.54-15.489,2,2,0,1,1,3.843-1.129,140.815,140.815,0,0,1,3.651,15.939,2.01,2.01,0,0,1-1.638,2.317A2.077,2.077,0,0,1,203.321,179.231Zm-107.7-12.805a2,2,0,0,1-1.931-1.471q-.372-1.35-.7-2.724a38.814,38.814,0,0,1-1.07-8.885,34.147,34.147,0,0,1,.385-5.141,2,2,0,0,1,3.96.6,30.386,30.386,0,0,0-.339,4.541,34.8,34.8,0,0,0,.965,7.961c.206.867.425,1.729.66,2.577a2,2,0,0,1-1.4,2.467A2.057,2.057,0,0,1,95.619,166.425Zm98.41-17.975a2.007,2.007,0,0,1-1.808-1.138A67.9,67.9,0,0,0,184,134.046a2.005,2.005,0,0,1,3.127-2.511,72.241,72.241,0,0,1,8.713,14.04,2.009,2.009,0,0,1-1.807,2.875Zm-93.435-12.564a1.983,1.983,0,0,1-1.214-.408A2.005,2.005,0,0,1,99,132.671a45.424,45.424,0,0,1,12.551-11.089A2,2,0,0,1,113.644,125a41.423,41.423,0,0,0-11.455,10.1A2,2,0,0,1,100.595,135.887Zm73.161-11.918a1.991,1.991,0,0,1-1.1-.326,45.29,45.29,0,0,0-14.048-6.08,2.006,2.006,0,0,1,.959-3.9,49.365,49.365,0,0,1,15.287,6.623,2,2,0,0,1-1.1,3.679ZM127.32,118.86a2.005,2.005,0,0,1-.568-3.928,75.64,75.64,0,0,1,15.757-2.848l.6-.019a2.135,2.135,0,0,1,2.042,1.964,2,2,0,0,1-1.964,2.042l-.436.017a71.341,71.341,0,0,0-14.867,2.688A2.05,2.05,0,0,1,127.32,118.86Z" transform="translate(-91.92 -112.065)" fill="#1e5a99"/>
    </g>
  </g>
</svg>
