<svg xmlns="http://www.w3.org/2000/svg" width="23.435" height="23.435" viewBox="0 0 23.435 23.435">
  <g id="telephone_1_" data-name="telephone(1)" transform="translate(-0.006)">
    <g id="Group_95" data-name="Group 95" transform="translate(0.006)">
      <path id="Path_22633" data-name="Path 22633" d="M17.823,59.39a1.642,1.642,0,0,0-2.482,0c-.58.575-1.161,1.151-1.731,1.736a.342.342,0,0,1-.478.088c-.376-.2-.775-.371-1.136-.595a18,18,0,0,1-4.34-3.95A10.283,10.283,0,0,1,6.1,54.177a.357.357,0,0,1,.088-.458c.58-.561,1.146-1.136,1.717-1.712a1.648,1.648,0,0,0,0-2.541c-.454-.458-.907-.907-1.361-1.365s-.931-.941-1.4-1.4a1.653,1.653,0,0,0-2.482,0c-.585.575-1.146,1.166-1.741,1.731a2.826,2.826,0,0,0-.888,1.907,8.079,8.079,0,0,0,.624,3.477A21.129,21.129,0,0,0,4.4,60.063a23.207,23.207,0,0,0,7.686,6.013,11.115,11.115,0,0,0,4.257,1.239A3.12,3.12,0,0,0,19.017,66.3c.5-.556,1.058-1.063,1.585-1.595a1.659,1.659,0,0,0,.01-2.526Q19.222,60.778,17.823,59.39Z" transform="translate(-0.006 -43.887)" fill="#fff"/>
      <path id="Path_22634" data-name="Path 22634" d="M243.14,102.935l1.8-.307A8.077,8.077,0,0,0,238.108,96l-.254,1.809a6.243,6.243,0,0,1,5.286,5.125Z" transform="translate(-226.255 -91.318)" fill="#fff"/>
      <path id="Path_22635" data-name="Path 22635" d="M250.615,3.794A13.269,13.269,0,0,0,243.008,0l-.254,1.809a11.578,11.578,0,0,1,9.8,9.495l1.8-.307A13.366,13.366,0,0,0,250.615,3.794Z" transform="translate(-230.916)" fill="#fff"/>
    </g>
  </g>
</svg>
