<svg xmlns="http://www.w3.org/2000/svg" width="98.145" height="107.46" viewBox="0 0 98.145 107.46">
  <g id="contract" transform="translate(-51.288 -32.421)">
    <g id="Group_19949" data-name="Group 19949" transform="translate(51.288 32.421)">
      <path id="Path_86503" data-name="Path 86503" d="M101.757,136.408H59.3a8.022,8.022,0,0,1-8.013-8.013V40.434A8.022,8.022,0,0,1,59.3,32.421h49.744a7.96,7.96,0,0,1,5.666,2.347l16.77,16.77a7.96,7.96,0,0,1,2.347,5.666V93.621a1.358,1.358,0,0,1-2.716,0V57.2a5.262,5.262,0,0,0-1.551-3.745l-16.77-16.77a5.262,5.262,0,0,0-3.745-1.551H59.3a5.3,5.3,0,0,0-5.3,5.3V128.4a5.3,5.3,0,0,0,5.3,5.3h42.456a1.358,1.358,0,1,1,0,2.716Z" transform="translate(-51.288 -32.421)" fill="#1e5a99"/>
    </g>
    <g id="Group_19950" data-name="Group 19950" transform="translate(110.444 33.021)">
      <path id="Path_86504" data-name="Path 86504" d="M312.325,57.775H292.194a1.358,1.358,0,0,1-1.358-1.358V36.207a1.358,1.358,0,1,1,2.716,0V55.058h18.773a1.358,1.358,0,0,1,0,2.716Z" transform="translate(-290.836 -34.849)" fill="#1d5a98"/>
    </g>
    <g id="Group_19951" data-name="Group 19951" transform="translate(62.332 46.285)">
      <path id="Path_86505" data-name="Path 86505" d="M124.392,91.279H97.369a1.358,1.358,0,1,1,0-2.716h27.023a1.358,1.358,0,1,1,0,2.716Z" transform="translate(-96.011 -88.563)" fill="#1d5a98"/>
    </g>
    <g id="Group_19952" data-name="Group 19952" transform="translate(62.332 57.232)">
      <path id="Path_86506" data-name="Path 86506" d="M124.392,135.608H97.369a1.358,1.358,0,1,1,0-2.716h27.023a1.358,1.358,0,0,1,0,2.716Z" transform="translate(-96.011 -132.892)" fill="#1d5a98"/>
    </g>
    <g id="Group_19953" data-name="Group 19953" transform="translate(62.332 68.179)">
      <path id="Path_86507" data-name="Path 86507" d="M153.137,179.937H97.369a1.358,1.358,0,0,1,0-2.716h55.768a1.358,1.358,0,0,1,0,2.716Z" transform="translate(-96.011 -177.221)" fill="#1d5a98"/>
    </g>
    <g id="Group_19954" data-name="Group 19954" transform="translate(62.332 79.126)">
      <path id="Path_86508" data-name="Path 86508" d="M153.137,224.266H97.369a1.358,1.358,0,0,1,0-2.716h55.768a1.358,1.358,0,0,1,0,2.716Z" transform="translate(-96.011 -221.55)" fill="#1d5a98"/>
    </g>
    <g id="Group_19955" data-name="Group 19955" transform="translate(77.597 89.271)">
      <path id="Path_86509" data-name="Path 86509" d="M229.471,284.854l-6.383-19.576a3.83,3.83,0,0,0-5.48-2.173l-6.365,3.483a3.83,3.83,0,0,0-1.49,5.254l.287.5-.736.2-7.625-3.61a7.274,7.274,0,0,0-5.764-.19l-7.769,3.069a9.3,9.3,0,0,0-1.5.759l-8.709-1.15a3.825,3.825,0,0,0-1.694-4.833l-6.364-3.483a3.83,3.83,0,0,0-5.48,2.173l-6.383,19.576a3.814,3.814,0,0,0,1.894,4.6l2.779,1.424a3.82,3.82,0,0,0,3.424.038,17.5,17.5,0,0,0,2.166,3.339l-.48.56a4.461,4.461,0,0,0,3.381,7.362c.117,0,.234,0,.352-.014.042,0,.083-.011.125-.016a4.442,4.442,0,0,0,4.411,3.87,4.5,4.5,0,0,0,.853-.085,4.447,4.447,0,0,0,4.356,3.531,4.5,4.5,0,0,0,.878-.089,4.457,4.457,0,0,0,7.744,1.972l1.024-1.2c1.828.926,3.682,1.824,5.527,2.67a4.674,4.674,0,0,0,6.62-4.451c.1.007.2.012.3.012a4.352,4.352,0,0,0,4.33-3.986,4.39,4.39,0,0,0,5.606-4.664,4.76,4.76,0,0,0,1.775-.526,4.581,4.581,0,0,0,2.445-3.6,4.5,4.5,0,0,0-.29-2.106l3.5-2.967a3.821,3.821,0,0,0,4.055.349l2.778-1.424a3.813,3.813,0,0,0,1.894-4.6Zm-32.558-13.585a4.546,4.546,0,0,1,3.6.119l8.075,3.823a1.359,1.359,0,0,0,.931.085l1.906-.508,7.706,13.541-3.5,2.964c-4.336-4.041-18.37-12.49-20.107-13.53a1.358,1.358,0,0,0-1.629.177l-7.381,6.959a5.324,5.324,0,0,1-4.482,1.211,1.88,1.88,0,0,1-1.063-.463c.038-.687,1.157-3.342,5.25-9.032a6.562,6.562,0,0,1,2.922-2.276ZM163.93,288.457l-2.779-1.424a1.109,1.109,0,0,1-.551-1.336l6.383-19.576a1.1,1.1,0,0,1,.648-.69,1.138,1.138,0,0,1,.416-.08,1.091,1.091,0,0,1,.529.138l6.364,3.483a1.114,1.114,0,0,1,.434,1.528l-.748,1.315-.009.016-9.212,16.187A1.112,1.112,0,0,1,163.93,288.457Zm7.395,11a1.744,1.744,0,0,1-1.46-2.873h0l4.257-4.972a1.744,1.744,0,1,1,2.65,2.268l-4.257,4.972A1.733,1.733,0,0,1,171.325,299.452Zm3.615,3.429a1.746,1.746,0,0,1-.191-2.459l5.54-6.471a1.744,1.744,0,0,1,2.65,2.269l-.7.813c-.03.033-.063.063-.092.1L177.9,302.1c-.03.035-.056.074-.085.11l-.41.479a1.744,1.744,0,0,1-2.459.191Zm5.209,3.446a1.741,1.741,0,0,1-.276-2.349l4.426-5.17a1.743,1.743,0,0,1,2.566,2.356l-4.257,4.972a1.746,1.746,0,0,1-2.459.191Zm5.231,3.44a1.746,1.746,0,0,1-.191-2.459l2.729-3.188a1.744,1.744,0,1,1,2.65,2.269l-2.729,3.188A1.746,1.746,0,0,1,185.38,309.767Zm29.446-14.437a1.848,1.848,0,0,1-1.006,1.469,2.02,2.02,0,0,1-1.921-.015l-.836-.461h0l-5.744-3.169h0l-8.123-4.482a1.358,1.358,0,1,0-1.312,2.378l8.124,4.482h0l5.744,3.169a1.682,1.682,0,0,1-1.6,2.96l-2.412-1.278c-.108-.07-.218-.139-.333-.2l-7.736-4.1a1.359,1.359,0,0,0-.212-.089l-1.993-1.056a1.358,1.358,0,1,0-1.272,2.4l10.153,5.378a1.63,1.63,0,0,1,.353,2.256,1.63,1.63,0,0,1-2.039.522l-1.6-.774a4.743,4.743,0,0,0-.7-.4L197.4,302.96l-1.8-.867a1.358,1.358,0,0,0-1.18,2.447l5.232,2.524a1.958,1.958,0,0,1-2.068,3.285c-1.617-.742-3.242-1.523-4.849-2.329a4.448,4.448,0,0,0-2.817-7.169,4.45,4.45,0,0,0-3.876-5.252,4.458,4.458,0,0,0-6.448-4.491,4.457,4.457,0,0,0-7.537-1.269l-1.974,2.306a12.321,12.321,0,0,1-1.945-3.44l8.385-14.733,7.538,1c-.015.02-.031.039-.046.059-6.555,9.113-5.915,10.76-5.607,11.551a3.784,3.784,0,0,0,3.075,2.19,8.057,8.057,0,0,0,6.825-1.831l.046-.041,6.656-6.275c7.1,4.286,17.954,11.262,19.4,13.323a2,2,0,0,1,.41,1.386Zm11.511-8.3-2.779,1.425a1.112,1.112,0,0,1-1.476-.44l-.018-.031v0L212.113,270.5a1.114,1.114,0,0,1,.433-1.528l6.364-3.482a1.114,1.114,0,0,1,1.594.632l6.383,19.576A1.109,1.109,0,0,1,226.337,287.032Z" transform="translate(-157.827 -262.634)" fill="#76c3e4"/>
      <path id="Path_86510" data-name="Path 86510" d="M395.306,292.644a1.358,1.358,0,1,0-2.539.966l.124.326a1.358,1.358,0,1,0,2.539-.966Z" transform="translate(-334.682 -284.574)" fill="#76c3e4"/>
      <path id="Path_86511" data-name="Path 86511" d="M201.321,293.977a1.358,1.358,0,0,0,1.849-.521l.183-.326a1.358,1.358,0,0,0-2.37-1.327l-.183.326A1.358,1.358,0,0,0,201.321,293.977Z" transform="translate(-190.057 -284.076)" fill="#76c3e4"/>
    </g>
  </g>
</svg>
