<svg xmlns="http://www.w3.org/2000/svg" width="93.037" height="123.31" viewBox="0 0 93.037 123.31">
  <g id="customer" transform="translate(-84.561 -30.731)">
    <g id="Group_19941" data-name="Group 19941" transform="translate(84.561 85.865)">
      <path id="Path_86481" data-name="Path 86481" d="M211.956,256.895a15.043,15.043,0,1,0-15.043-15.043A15.06,15.06,0,0,0,211.956,256.895Zm0-26.43a11.387,11.387,0,1,1-11.387,11.387A11.4,11.4,0,0,1,211.956,230.465Z" transform="translate(-165.322 -226.809)" fill="#1e5b99"/>
      <path id="Path_86482" data-name="Path 86482" d="M317.768,300.841a11.564,11.564,0,1,0-11.563-11.563A11.577,11.577,0,0,0,317.768,300.841Zm0-19.472a7.908,7.908,0,1,1-7.908,7.908A7.917,7.917,0,0,1,317.768,281.369Z" transform="translate(-243.883 -263.4)" fill="#1e5b99"/>
      <path id="Path_86483" data-name="Path 86483" d="M158.8,352.329a19.683,19.683,0,0,0-8.513,1.929,25.769,25.769,0,0,0-37.6.409,19.589,19.589,0,0,0-9.317-2.338c-10.368,0-18.8,7.991-18.8,17.814,0,.272.008.554.023.862a1.829,1.829,0,0,0,.64,1.3,27.832,27.832,0,0,0,28.6,4.287,37.295,37.295,0,0,0,34.334.217,27.717,27.717,0,0,0,10.286,1.954,27.257,27.257,0,0,0,18.559-7.143,1.835,1.835,0,0,0,.589-1.336c0-.047,0-.093,0-.14,0-9.823-8.435-17.814-18.8-17.814Zm-55.781,22.778a23.812,23.812,0,0,1-14.8-5.074c.063-7.757,6.834-14.049,15.147-14.049a15.971,15.971,0,0,1,7.065,1.632,22.452,22.452,0,0,0-3.628,12.224c0,.363.01.735.03,1.138a1.827,1.827,0,0,0,.64,1.3q1.153.982,2.383,1.858a24.211,24.211,0,0,1-6.84.972Zm7.442-5.1q0-.083,0-.165c0-10.957,9.516-19.871,21.213-19.871,11.474,0,20.85,8.579,21.2,19.241a33.335,33.335,0,0,1-42.414.8Zm47.99,5.1a24.313,24.313,0,0,1-6.17-.791,35.441,35.441,0,0,0,3.666-2.952,1.874,1.874,0,0,0,.589-1.324v-.032c0-.056,0-.111,0-.167a22.478,22.478,0,0,0-3.9-12.63,16.067,16.067,0,0,1,6.154-1.227c8.111,0,14.753,5.99,15.13,13.483A23.658,23.658,0,0,1,158.447,375.107Z" transform="translate(-84.561 -312.711)" fill="#1e5b99"/>
      <path id="Path_86484" data-name="Path 86484" d="M120.628,300.841a11.564,11.564,0,1,0-11.563-11.563A11.577,11.577,0,0,0,120.628,300.841Zm0-19.472a7.908,7.908,0,1,1-7.908,7.908A7.917,7.917,0,0,1,120.628,281.369Z" transform="translate(-102.175 -263.4)" fill="#1e5b99"/>
    </g>
    <g id="Group_19942" data-name="Group 19942" transform="translate(102.084 30.731)">
      <path id="Path_86485" data-name="Path 86485" d="M198.5,30.731H153.25a6.379,6.379,0,0,0-6.372,6.372V67.6a6.379,6.379,0,0,0,6.372,6.372H170.6l3.694,6.4a1.828,1.828,0,0,0,3.165,0l3.694-6.4H198.5A6.38,6.38,0,0,0,204.87,67.6V37.1a6.379,6.379,0,0,0-6.372-6.372ZM201.215,67.6a2.72,2.72,0,0,1-2.717,2.717H180.1a1.827,1.827,0,0,0-1.583.914l-2.639,4.57-2.639-4.57a1.827,1.827,0,0,0-1.583-.914h-18.4a2.72,2.72,0,0,1-2.717-2.717V37.1a2.72,2.72,0,0,1,2.717-2.717H198.5a2.72,2.72,0,0,1,2.717,2.717Z" transform="translate(-146.878 -30.731)" fill="#76c3e4"/>
      <path id="Path_86486" data-name="Path 86486" d="M236.136,85.313a5.423,5.423,0,1,0,5.423,5.423A5.429,5.429,0,0,0,236.136,85.313Zm0,7.191a1.768,1.768,0,1,1,1.768-1.768A1.77,1.77,0,0,1,236.136,92.5Z" transform="translate(-207.14 -69.965)" fill="#76c3e4"/>
      <path id="Path_86487" data-name="Path 86487" d="M185.1,85.313a5.423,5.423,0,1,0,5.423,5.423A5.429,5.429,0,0,0,185.1,85.313Zm0,7.191a1.768,1.768,0,1,1,1.768-1.768A1.77,1.77,0,0,1,185.1,92.5Z" transform="translate(-170.452 -69.965)" fill="#76c3e4"/>
      <path id="Path_86488" data-name="Path 86488" d="M287.175,85.313a5.423,5.423,0,1,0,5.423,5.423A5.429,5.429,0,0,0,287.175,85.313Zm0,7.191a1.768,1.768,0,1,1,1.768-1.768A1.77,1.77,0,0,1,287.175,92.5Z" transform="translate(-243.828 -69.965)" fill="#76c3e4"/>
      <path id="Path_86489" data-name="Path 86489" d="M291.605,142.654h-3.328a1.828,1.828,0,1,0,0,3.655h3.328a1.828,1.828,0,1,0,0-3.655Z" transform="translate(-247.205 -111.183)" fill="#76c3e4"/>
    </g>
  </g>
</svg>
