<svg xmlns="http://www.w3.org/2000/svg" width="275.628" height="275.573" viewBox="0 0 275.628 275.573">
  <path id="leadership" d="M75.616,220.89V207.3L51.508,193.774v40.042a3.67,3.67,0,1,1-7.34,0V187.507a3.673,3.673,0,0,1,5.466-3.2L81.08,201.948a3.669,3.669,0,0,1,1.876,3.2V220.89a3.67,3.67,0,0,1-7.34,0Zm-67.5-37.383V139.762c0-12.473,12.319-18.057,24.528-18.057h3.051c-4.873-4.5-8.057-11.729-8.057-19.894,0-12.529,7.526-20.312,19.64-20.312s19.642,7.783,19.642,20.312c0,8.166-3.184,15.4-8.058,19.894h28.8a9.369,9.369,0,0,0,3.211-.528l13.712-4.632,9.261-3.233,20.039-7.078a9.514,9.514,0,0,0,4.334-3l6.43-7.644c7.256-8.633,12.986-15.452,23.678-15.452l9.616-.1c-5.629-4.46-9.389-12.327-9.389-21.3,0-12.764,7.667-20.695,20.008-20.695s20.01,7.93,20.01,20.695c0,8.81-3.623,16.564-9.085,21.063h22.32l.057-21.694a12.33,12.33,0,0,1,9.192-11.931V3.67A3.67,3.67,0,0,1,234.725,0H267.9a3.67,3.67,0,0,1,3.254,5.365l-3.859,7.41,3.859,7.41a3.67,3.67,0,0,1-3.254,5.365h-29.51V46.265a12.452,12.452,0,0,1,8.752,11.845V92.156a12.642,12.642,0,0,1-12.62,12.633l-15.385.614a10.731,10.731,0,0,0-10.8,10.677v24.456l30.418,17.585a3.672,3.672,0,0,1,1.833,3.178v30.688a3.67,3.67,0,0,1-7.34,0V163.416l-30.418-17.585A3.672,3.672,0,0,1,201,142.653V116.08A18.065,18.065,0,0,1,219,98.067l15.385-.614a5.33,5.33,0,0,0,5.426-5.3V58.11a5.3,5.3,0,0,0-10.6,0l-.048,22.417a6.978,6.978,0,0,1-6.883,6.953l-53.9,0c-7.005,0-10.814,4.166-18.1,12.834l-6.434,7.647a16.7,16.7,0,0,1-7.5,5.2l-13.442,4.749a12.033,12.033,0,0,1,3.332,10.042l19.2-5.929a9.5,9.5,0,0,0,4.5-2.876L160.1,107.818a3.67,3.67,0,0,1,6.4,2.454v95.935a3.67,3.67,0,1,1-7.34,0V119.842l-3.782,4.207a16.668,16.668,0,0,1-7.791,4.982L118.4,138.043l-.01,0-20.973,7.483a16.641,16.641,0,0,1-5.832,1.006H81.7A10.386,10.386,0,0,0,71.4,156.86V175.5l29.694,17.167a3.672,3.672,0,0,1,1.833,3.178V220.89a3.67,3.67,0,0,1-7.34,0V197.965L65.892,180.8a3.672,3.672,0,0,1-1.833-3.178V156.86A17.722,17.722,0,0,1,81.7,139.194h9.88a9.317,9.317,0,0,0,3.367-.581l21.133-7.534a4.944,4.944,0,0,0,2.554-2.675,5.082,5.082,0,0,0-6.64-6.625c-.076.032-18.775,6.352-18.775,6.352a16.676,16.676,0,0,1-5.56.914H32.642c-1.758,0-17.188.3-17.188,10.717v43.745a10.773,10.773,0,0,0,7.7,10.094V145.255a3.67,3.67,0,1,1,7.34,0v52.616c0,.008,0,.016,0,.024s0,.015,0,.024v35.9a3.67,3.67,0,1,1-7.34,0v-32.6a18.262,18.262,0,0,1-15.039-17.7Zm230.28-165.3h23.46l-1.947-3.74a3.664,3.664,0,0,1,0-3.39l1.947-3.74h-23.46Zm-62.5,40.529c0,9.833,5.682,17.834,12.668,17.834s12.67-8,12.67-17.834c0-11.62-7.937-13.355-12.67-13.355S175.893,47.12,175.893,58.74ZM34.976,101.811c0,9.568,5.517,17.351,12.3,17.351s12.3-7.783,12.3-17.351c0-11.287-7.708-12.972-12.3-12.972S34.976,90.525,34.976,101.811ZM216.5,195.657a3.671,3.671,0,0,0,3.67-3.67V170.813a3.669,3.669,0,0,0-1.876-3.2l-32.171-18.046a3.671,3.671,0,0,0-5.464,3.2v53.438a3.67,3.67,0,1,0,7.34,0V159.034l24.831,13.929v19.023a3.67,3.67,0,0,0,3.669,3.67ZM267.9,209.5H201.845a3.671,3.671,0,0,0-3.67,3.67v11.048H135.787a3.671,3.671,0,0,0-3.67,3.67V236.5H69.728a3.671,3.671,0,0,0-3.67,3.67v10.2H3.67A3.671,3.671,0,0,0,0,254.034V267.9a3.67,3.67,0,0,0,7.34,0V257.7H66.059v10.2a3.67,3.67,0,1,0,7.34,0V243.836h58.719V267.9a3.67,3.67,0,1,0,7.34,0V231.558h58.719V267.9a3.67,3.67,0,1,0,7.34,0V216.84h58.719V267.9a3.67,3.67,0,0,0,7.34,0V213.17a3.672,3.672,0,0,0-3.671-3.67Z" transform="translate(2 2)" fill="#fff" stroke="#1f5b99" stroke-width="4" opacity="0.09"/>
</svg>
