<svg xmlns="http://www.w3.org/2000/svg" width="300.854" height="299.948" viewBox="0 0 300.854 299.948">
  <g id="Outline" transform="translate(0.604 0.5)" opacity="0.18">
    <g id="Group_19960" data-name="Group 19960" transform="translate(1.975 2)">
      <path id="Path_86520" data-name="Path 86520" d="M40.656,31.275a5.059,5.059,0,0,0,1.416.206,4.916,4.916,0,0,0,4.7-3.5L52.489,8.957A4.916,4.916,0,0,0,43.07,6.135L37.358,25.154A4.916,4.916,0,0,0,40.656,31.275Z" transform="translate(135.762 0.462)" fill="#fff" stroke="#76c3e4" stroke-width="5"/>
      <path id="Path_86521" data-name="Path 86521" d="M46.505,31.374a4.916,4.916,0,0,0,6.666-1.966l9.517-17.53a4.917,4.917,0,1,0-8.642-4.695L44.529,24.708A4.916,4.916,0,0,0,46.505,31.374Z" transform="translate(162.323 8.228)" fill="#fff" stroke="#76c3e4" stroke-width="5"/>
      <path id="Path_86522" data-name="Path 86522" d="M55.855,33.372a4.916,4.916,0,0,0,3.761-1.745L72.539,16.28a4.916,4.916,0,1,0-7.517-6.337L52.1,25.29a4.916,4.916,0,0,0,3.756,8.082Z" transform="translate(189.778 22.26)" fill="#fff" stroke="#76c3e4" stroke-width="5"/>
      <path id="Path_86523" data-name="Path 86523" d="M61.95,36.3a4.916,4.916,0,0,0,3.161-1.151L80.35,22.366a4.915,4.915,0,1,0-6.317-7.532L58.794,27.616a4.916,4.916,0,0,0,3.161,8.676Z" transform="translate(213.664 43.756)" fill="#fff" stroke="#76c3e4" stroke-width="5"/>
      <path id="Path_86524" data-name="Path 86524" d="M22.509,31.627a4.916,4.916,0,1,0,7.517-6.337L17.1,9.943A4.916,4.916,0,1,0,9.585,16.28Z" transform="translate(23.292 22.26)" fill="#fff" stroke="#76c3e4" stroke-width="5"/>
      <path id="Path_86525" data-name="Path 86525" d="M26.245,29.405a4.916,4.916,0,1,0,8.642-4.69L25.37,7.181a4.917,4.917,0,1,0-8.642,4.695Z" transform="translate(53.455 8.22)" fill="#fff" stroke="#76c3e4" stroke-width="5"/>
      <path id="Path_86526" data-name="Path 86526" d="M18.551,34.112a4.916,4.916,0,1,0,6.007-7.777L10.017,15.1A4.916,4.916,0,1,0,4.01,22.88Z" transform="translate(-1.975 44.914)" fill="#fff" stroke="#76c3e4" stroke-width="5"/>
      <path id="Path_86527" data-name="Path 86527" d="M29.608,27.976a4.916,4.916,0,0,0,4.7,3.5,5.058,5.058,0,0,0,1.416-.206,4.916,4.916,0,0,0,3.3-6.12L33.314,6.135A4.916,4.916,0,0,0,23.9,8.957Z" transform="translate(83.047 0.462)" fill="#fff" stroke="#76c3e4" stroke-width="5"/>
      <path id="Path_86528" data-name="Path 86528" d="M35.916,31.495a4.916,4.916,0,0,0,4.916-4.916V6.916a4.916,4.916,0,1,0-9.832,0V26.579A4.916,4.916,0,0,0,35.916,31.495Z" transform="translate(111.681 -2)" fill="#fff" stroke="#76c3e4" stroke-width="5"/>
      <path id="Path_86529" data-name="Path 86529" d="M82.65,114.737A188.643,188.643,0,0,1,13.175,60.354a198.308,198.308,0,0,1,32.081-31.83,4.917,4.917,0,0,0-6.071-7.737A209.413,209.413,0,0,0,3.029,57.345a4.916,4.916,0,0,0,0,6.017,199.287,199.287,0,0,0,75.62,60.356,4.916,4.916,0,1,0,4-8.981Z" transform="translate(-1.874 67.457)" fill="#fff" stroke="#76c3e4" stroke-width="5"/>
      <path id="Path_86530" data-name="Path 86530" d="M255.905,93.661a4.916,4.916,0,0,0,0-6.017C218.683,39.568,165.3,12,109.459,12A176.349,176.349,0,0,0,14.491,40.212,4.916,4.916,0,0,0,19.78,48.5,171.11,171.11,0,0,1,59.81,29.741,78.471,78.471,0,0,0,60.3,151.948v7.526a14.747,14.747,0,1,0,0,29.495h98.316a4.916,4.916,0,1,1,0,9.832H60.3a4.916,4.916,0,0,0,0,9.832,49.158,49.158,0,0,0,98.316,0,14.683,14.683,0,0,0,10.913-24.579,14.683,14.683,0,0,0-10.913-24.579v-7.526a77.955,77.955,0,0,0,29.495-61.3,79.1,79.1,0,0,0-1.839-16.792,4.916,4.916,0,1,0-9.606,2.094,69.125,69.125,0,0,1,1.613,14.7,68.275,68.275,0,0,1-27.528,54.964,4.916,4.916,0,0,0-1.966,3.933v9.925H129.122v-34.8a39.159,39.159,0,0,0,17.156-47.747,4.916,4.916,0,0,0-4.139-3.171,4.867,4.867,0,0,0-4.665,2.325,9.795,9.795,0,1,1-13.445-13.445,4.916,4.916,0,0,0-.845-8.8A39.289,39.289,0,0,0,89.8,124.67v34.8H70.133v-9.935a4.916,4.916,0,0,0-1.966-3.933A68.777,68.777,0,1,1,170.415,58.7a4.917,4.917,0,1,0,8.706-4.572,78.952,78.952,0,0,0-19.85-24.358,184.416,184.416,0,0,1,86.484,60.882,188.643,188.643,0,0,1-69.475,54.383,4.916,4.916,0,0,0,4,8.981,199.287,199.287,0,0,0,75.625-60.356Zm-146.446,154.3a39.371,39.371,0,0,1-39.326-39.326h78.653a39.371,39.371,0,0,1-39.326,39.326Zm54.074-73.737a4.916,4.916,0,0,1-4.916,4.916H60.3a4.916,4.916,0,0,1,0-9.832h98.316A4.916,4.916,0,0,1,163.533,174.221ZM96.825,117.267a29.495,29.495,0,0,1,12.634-56.109c.86,0,1.72.039,2.571.113a19.663,19.663,0,0,0,26.806,26.811c.079.85.118,1.711.118,2.571a29.627,29.627,0,0,1-16.861,26.614,4.916,4.916,0,0,0-2.8,4.424v37.783H99.627V121.706a4.916,4.916,0,0,0-2.8-4.439Z" transform="translate(38.138 37.158)" fill="#fff" stroke="#76c3e4" stroke-width="5"/>
      <path id="Path_86531" data-name="Path 86531" d="M59.622,43a4.922,4.922,0,0,0-7.516,6.356L65.03,64.7a4.917,4.917,0,1,0,7.516-6.341Z" transform="translate(189.771 151.704)" fill="#fff" stroke="#76c3e4" stroke-width="5"/>
      <path id="Path_86532" data-name="Path 86532" d="M65.221,37.526A4.916,4.916,0,1,0,58.9,45.052L74.143,57.833a4.916,4.916,0,0,0,6.322-7.526Z" transform="translate(213.554 132.168)" fill="#fff" stroke="#76c3e4" stroke-width="5"/>
      <path id="Path_86533" data-name="Path 86533" d="M22.51,42.983,9.586,58.331A4.917,4.917,0,1,0,17.1,64.672L30.026,49.34A4.916,4.916,0,1,0,22.51,43Z" transform="translate(23.291 151.716)" fill="#fff" stroke="#76c3e4" stroke-width="5"/>
      <path id="Path_86534" data-name="Path 86534" d="M18.551,37.388,4.01,48.616a4.916,4.916,0,1,0,6.007,7.777L24.558,45.165a4.916,4.916,0,1,0-6.007-7.777Z" transform="translate(-1.975 132.177)" fill="#fff" stroke="#76c3e4" stroke-width="5"/>
    </g>
  </g>
</svg>
