<svg xmlns="http://www.w3.org/2000/svg" width="121.018" height="107.46" viewBox="0 0 121.018 107.46">
  <g id="thumb-up" transform="translate(-43.257 -94.291)">
    <g id="Group_19956" data-name="Group 19956" transform="translate(118.572 94.291)">
      <path id="Path_86512" data-name="Path 86512" d="M302.2,162.87h9.522a1.61,1.61,0,0,0,1.61-1.61V148.047a1.61,1.61,0,0,0-1.61-1.61H302.2a1.61,1.61,0,0,0-1.61,1.61V161.26a1.61,1.61,0,0,0,1.61,1.61Zm1.61-13.213h6.3v9.994h-6.3Z" transform="translate(-300.588 -131.175)" fill="#1e5a99"/>
      <path id="Path_86513" data-name="Path 86513" d="M357.838,143.634h9.522a1.61,1.61,0,0,0,1.61-1.61V120.852a1.61,1.61,0,0,0-1.61-1.61h-9.522a1.61,1.61,0,0,0-1.61,1.61v21.172A1.61,1.61,0,0,0,357.838,143.634Zm1.61-21.173h6.3v17.953h-6.3Z" transform="translate(-339.943 -111.94)" fill="#1e5a99"/>
      <path id="Path_86514" data-name="Path 86514" d="M424.341,94.291h-9.522a1.61,1.61,0,0,0-1.61,1.61v28.436a1.61,1.61,0,0,0,1.61,1.61h9.522a1.61,1.61,0,0,0,1.61-1.61V95.9A1.61,1.61,0,0,0,424.341,94.291Zm-1.61,28.436h-6.3V97.51h6.3Z" transform="translate(-380.247 -94.291)" fill="#1e5a99"/>
    </g>
    <path id="Path_86516" data-name="Path 86516" d="M185.884,191.471l-15.514-.87a5.847,5.847,0,0,0-6.17,5.58l0,.077c-7.417-1.345-13.218-4.557-17.257-9.568a30.235,30.235,0,0,1-5.972-14.081,7.742,7.742,0,0,0-5.218-6.129,7.663,7.663,0,0,0-7.774,1.744c-2.587,2.5-4.35,6.1-5.239,10.716-1,5.207-.334,11.105,1.975,17.584H101.365a8,8,0,0,0-6.084,13.194,8,8,0,0,0-1.592,14.461,8,8,0,0,0,2.605,13.429,8,8,0,0,0,6.007,13.283h1.082a207.443,207.443,0,0,0,24.472,1.635c13.7,0,26.638-1.939,33.556-8.009.428-.376.81-.749,1.155-1.118a5.86,5.86,0,0,0,5.486,3.814h13.962a5.879,5.879,0,0,0,5.829-5.379l3.543-44.056a5.848,5.848,0,0,0-5.5-6.307Zm-84.52,8.273h11.609a4.784,4.784,0,0,1,0,9.568H101.365a4.784,4.784,0,0,1,0-9.568ZM97.8,222.1a4.784,4.784,0,1,1,0-9.568H115.53a4.784,4.784,0,1,1,0,9.568H97.8Zm-3.514,8a4.789,4.789,0,0,1,4.784-4.784h15a4.784,4.784,0,0,1,0,9.568h-15A4.789,4.789,0,0,1,94.283,230.1Zm3.234,12.787a4.789,4.789,0,0,1,4.784-4.784h9.765a4.784,4.784,0,0,1,0,9.568H102.3A4.79,4.79,0,0,1,97.517,242.89Zm61.569-.617c-3.39,2.865-8.8,4.893-16.092,6.026a121.123,121.123,0,0,1-25.728.667,7.988,7.988,0,0,0,.448-11.742,7.993,7.993,0,0,0,1.806-12.976,8,8,0,0,0-.723-14.238,7.985,7.985,0,0,0,.591-10.267h6.588c.316.741.645,1.486,1,2.24a67.247,67.247,0,0,0,6.481,10.958,1.61,1.61,0,0,0,2.563-1.948c-.129-.17-12.874-17.166-10.121-31.444.762-3.951,2.213-6.982,4.314-9.009a4.4,4.4,0,0,1,4.519-1.007,4.474,4.474,0,0,1,3.058,3.584c1.363,8.5,6.6,23.031,26.265,26.385l-1.668,37.642c-.017.241-.253,2.552-3.3,5.127Zm29.091-44.752-3.543,44.057a2.642,2.642,0,0,1-2.62,2.418H168.052a2.629,2.629,0,0,1-2.626-2.745l.173-3.9c0-.059.005-.1.006-.136l1.729-39.02h0l.083-1.866a2.629,2.629,0,0,1,2.622-2.512c.05,0,.1,0,.151,0h0l15.514.87a2.628,2.628,0,0,1,2.473,2.835Z" transform="translate(-32.916 -50.777)" fill="#1e5a99"/>
    <path id="Path_86517" data-name="Path 86517" d="M84.9,119.666a20.822,20.822,0,1,0-20.822,20.822A20.846,20.846,0,0,0,84.9,119.666Zm-38.425,0a17.6,17.6,0,1,1,17.6,17.6A17.623,17.623,0,0,1,46.476,119.666Z" transform="translate(0 -3.22)" fill="#76c3e4"/>
    <path id="Path_86518" data-name="Path 86518" d="M97.994,150.522a1.609,1.609,0,0,0-2.276,0L87.239,159l-4.686-4.686a1.61,1.61,0,1,0-2.276,2.277l5.824,5.824a1.609,1.609,0,0,0,2.276,0l9.617-9.617A1.609,1.609,0,0,0,97.994,150.522Z" transform="translate(-25.851 -39.44)" fill="#76c3e4"/>
    <path id="Path_86519" data-name="Path 86519" d="M383.2,288.6a1.61,1.61,0,0,0-1.61,1.61v1.962a1.61,1.61,0,1,0,3.219,0V290.21A1.61,1.61,0,0,0,383.2,288.6Z" transform="translate(-239.311 -137.439)" fill="#0c0c0c"/>
  </g>
</svg>
