<svg xmlns="http://www.w3.org/2000/svg" width="120.983" height="107.463" viewBox="0 0 120.983 107.463">
  <g id="time-management" transform="translate(-53.689 -75.627)">
    <g id="Group_19943" data-name="Group 19943" transform="translate(63.906 103.202)">
      <path id="Path_86490" data-name="Path 86490" d="M108.242,207.9a21.394,21.394,0,1,1,21.394-21.394A21.418,21.418,0,0,1,108.242,207.9Zm0-39.739a18.345,18.345,0,1,0,18.345,18.345A18.366,18.366,0,0,0,108.242,168.164Z" transform="translate(-86.848 -165.115)" fill="#76c3e4"/>
    </g>
    <g id="Group_19946" data-name="Group 19946" transform="translate(125.292 133.71)">
      <g id="Group_19944" data-name="Group 19944">
        <path id="Path_86491" data-name="Path 86491" d="M313.624,313.5h-5.747a4.5,4.5,0,0,1-4.48-4.193,1.171,1.171,0,0,0-1.94-.8,4.5,4.5,0,0,1-6.133-.2l-4.064-4.064a4.5,4.5,0,0,1-.2-6.133,1.171,1.171,0,0,0-.8-1.94,4.5,4.5,0,0,1-4.193-4.48v-5.747a4.5,4.5,0,0,1,4.193-4.48,1.171,1.171,0,0,0,.8-1.94,4.5,4.5,0,0,1,.2-6.133l4.064-4.064a4.5,4.5,0,0,1,6.133-.2,1.171,1.171,0,0,0,1.94-.8,4.5,4.5,0,0,1,4.48-4.193h5.747a4.5,4.5,0,0,1,4.48,4.193,1.171,1.171,0,0,0,1.94.8,4.5,4.5,0,0,1,6.133.2l4.064,4.064a4.5,4.5,0,0,1,.2,6.133,1.171,1.171,0,0,0,.8,1.94,4.5,4.5,0,0,1,4.193,4.48v5.747a4.5,4.5,0,0,1-4.193,4.48,1.171,1.171,0,0,0-.8,1.94,4.5,4.5,0,0,1-.2,6.133l-4.064,4.064a4.5,4.5,0,0,1-6.133.2,1.171,1.171,0,0,0-1.94.8,4.5,4.5,0,0,1-4.48,4.193Zm-11.4-8.61a4.5,4.5,0,0,1,4.489,4.2,1.174,1.174,0,0,0,1.168,1.094h5.747a1.174,1.174,0,0,0,1.168-1.094,4.49,4.49,0,0,1,7.438-3.081,1.173,1.173,0,0,0,1.6-.053l4.064-4.064a1.174,1.174,0,0,0,.053-1.6,4.49,4.49,0,0,1,3.081-7.438,1.174,1.174,0,0,0,1.094-1.168v-5.747a1.174,1.174,0,0,0-1.094-1.168h0a4.49,4.49,0,0,1-3.081-7.438,1.174,1.174,0,0,0-.053-1.6l-4.064-4.064a1.173,1.173,0,0,0-1.6-.053,4.49,4.49,0,0,1-7.438-3.081,1.174,1.174,0,0,0-1.168-1.094h-5.747a1.174,1.174,0,0,0-1.168,1.094,4.49,4.49,0,0,1-7.438,3.081,1.174,1.174,0,0,0-1.6.053l-4.064,4.064a1.174,1.174,0,0,0-.053,1.6,4.49,4.49,0,0,1-3.081,7.438,1.174,1.174,0,0,0-1.094,1.168v5.747a1.174,1.174,0,0,0,1.094,1.168,4.49,4.49,0,0,1,3.081,7.438,1.174,1.174,0,0,0,.053,1.6l4.064,4.064a1.174,1.174,0,0,0,1.6.053,4.466,4.466,0,0,1,2.949-1.116Z" transform="translate(-286.06 -264.122)" fill="#76c3e4"/>
      </g>
      <g id="Group_19945" data-name="Group 19945" transform="translate(14.181 14.18)">
        <path id="Path_86492" data-name="Path 86492" d="M342.59,331.161A10.509,10.509,0,1,1,353.1,320.651,10.521,10.521,0,0,1,342.59,331.161Zm0-17.7a7.19,7.19,0,1,0,7.19,7.19A7.2,7.2,0,0,0,342.59,313.461Z" transform="translate(-332.081 -310.142)" fill="#76c3e4"/>
      </g>
    </g>
    <g id="Group_19947" data-name="Group 19947" transform="translate(82.298 112.713)">
      <path id="Path_86493" data-name="Path 86493" d="M157.645,211.913h-9.587a1.525,1.525,0,0,1-1.525-1.525V197.5a1.525,1.525,0,0,1,3.049,0v11.359h8.063a1.525,1.525,0,1,1,0,3.049Z" transform="translate(-146.533 -195.98)" fill="#76c3e4"/>
    </g>
    <g id="Group_19948" data-name="Group 19948" transform="translate(53.689 75.627)">
      <path id="Path_86494" data-name="Path 86494" d="M157.823,75.627H62.35a8.671,8.671,0,0,0-8.661,8.661v81a8.671,8.671,0,0,0,8.661,8.661h68.364a1.659,1.659,0,0,0,0-3.319H62.35a5.349,5.349,0,0,1-5.342-5.342V96.4H163.166v43.178a1.659,1.659,0,1,0,3.319,0V84.289a8.671,8.671,0,0,0-8.661-8.661ZM57.007,93.081V84.288a5.349,5.349,0,0,1,5.342-5.343h95.473a5.349,5.349,0,0,1,5.343,5.343v8.793Z" transform="translate(-53.689 -75.627)" fill="#1d5a98"/>
      <path id="Path_86495" data-name="Path 86495" d="M91.172,102.935H88.747a1.659,1.659,0,0,0,0,3.319h2.424a1.659,1.659,0,0,0,0-3.319Z" transform="translate(-76.796 -94.52)" fill="#1d5a98"/>
      <path id="Path_86496" data-name="Path 86496" d="M118.5,102.935h-2.424a1.659,1.659,0,0,0,0,3.319H118.5a1.659,1.659,0,0,0,0-3.319Z" transform="translate(-95.705 -94.52)" fill="#1d5a98"/>
      <path id="Path_86497" data-name="Path 86497" d="M146.246,102.935h-2.424a1.659,1.659,0,0,0,0,3.319h2.424a1.659,1.659,0,1,0,0-3.319Z" transform="translate(-114.9 -94.52)" fill="#1d5a98"/>
      <path id="Path_86498" data-name="Path 86498" d="M126.1,323.147H87.863a1.653,1.653,0,0,0,0,3.305H126.1a1.653,1.653,0,1,0,0-3.305Z" transform="translate(-76.189 -246.876)" fill="#1d5a98"/>
      <path id="Path_86499" data-name="Path 86499" d="M126.1,350.165H87.863a1.652,1.652,0,1,0,0,3.3H126.1a1.652,1.652,0,1,0,0-3.3Z" transform="translate(-76.189 -265.569)" fill="#1d5a98"/>
      <path id="Path_86500" data-name="Path 86500" d="M252.473,197.967a1.659,1.659,0,0,0-1.659,1.659v13.589a1.659,1.659,0,0,0,1.659,1.659h9.875a1.659,1.659,0,0,0,1.659-1.659V199.626a1.659,1.659,0,0,0-1.659-1.659Zm8.215,13.589h-6.556v-10.27h6.556Z" transform="translate(-190.072 -160.269)" fill="#1d5a98"/>
      <path id="Path_86501" data-name="Path 86501" d="M311.358,181.818h-9.875a1.659,1.659,0,0,0-1.659,1.659v18.565a1.659,1.659,0,0,0,1.659,1.659h9.875a1.659,1.659,0,0,0,1.659-1.659V183.477A1.659,1.659,0,0,0,311.358,181.818ZM309.7,200.383h-6.556V185.137H309.7Z" transform="translate(-223.98 -149.096)" fill="#1d5a98"/>
      <path id="Path_86502" data-name="Path 86502" d="M360.117,164.678h-9.875a1.659,1.659,0,0,0-1.659,1.659v23.847a1.66,1.66,0,0,0,1.659,1.659h9.875a1.659,1.659,0,0,0,1.659-1.659V166.337A1.659,1.659,0,0,0,360.117,164.678Zm-1.659,23.847H351.9V168h6.556Z" transform="translate(-257.714 -137.238)" fill="#1d5a98"/>
    </g>
  </g>
</svg>
